# xmcd
#
# Track frame offsets:
#	150
#	11594
#	26403
#	39679
#	56435
#	70585
#	85962
#	100158
#	114517
#	129665
#	141665
#	156006
#	170053
#	182709
#	196551
#	225382
#
# Disc length: 3320 seconds
#
# Revision: 0
# Processed by: cddbd v1.5.1PL0 Copyright (c) Steve Scherf et al.
# Submitted via: dBpowerAMP V4.0
#
DISCID=cf0cf610
DTITLE=Vastelaóves virus - Deel 6
DYEAR=2005
DGENRE=Karnaval
TTITLE0=Guus Sjmeets - Iedewiedewiet
TTITLE1=Tilla en Netta - Kien!!
TTITLE2=Jack and Wim - Mien Trompötje 
TTITLE3=Sap - Wappere
TTITLE4=Brigit - 't geit gebeure
TTITLE5=Döbbel Frisj - Der alte holzmichl
TTITLE6=Jan Ridderbeekx - Der Vastelaoves fits
TTITLE7=De Batsekratsers - Wie oawwer, wie gekker
TTITLE8=Bedank and Adie - Mien ideaal
TTITLE9=Thei Dols - Blief 'ne Limbo
TTITLE10=Lydia and Roger - De berg op
TTITLE11=Brigit - Dora, 't zösterke van Cora
TTITLE12=Tisniksentwurtniks - Happy together
TTITLE13=Jupp Nussbach - Das eierlied
TTITLE14=2 gether - Wir wollen party
TTITLE15=DATA
EXTD=
EXTT0=
EXTT1=
EXTT2=
EXTT3=
EXTT4=
EXTT5=
EXTT6=
EXTT7=
EXTT8=
EXTT9=
EXTT10=
EXTT11=
EXTT12=
EXTT13=
EXTT14=
EXTT15=
PLAYORDER=
